<?xml version="1.0" encoding="UTF-8" standalone="no"?>
<!-- Generator: Adobe Illustrator 22.0.0, SVG Export Plug-In . SVG Version: 6.00 Build 0)  -->

<svg
   xmlns:dc="http://purl.org/dc/elements/1.1/"
   xmlns:cc="http://creativecommons.org/ns#"
   xmlns:rdf="http://www.w3.org/1999/02/22-rdf-syntax-ns#"
   xmlns:svg="http://www.w3.org/2000/svg"
   xmlns="http://www.w3.org/2000/svg"
   xmlns:sodipodi="http://sodipodi.sourceforge.net/DTD/sodipodi-0.dtd"
   xmlns:inkscape="http://www.inkscape.org/namespaces/inkscape"
   version="1.1"
   id="Layer_1"
   x="0px"
   y="0px"
   viewBox="0 0 48 48"
   style="enable-background:new 0 0 48 48;"
   xml:space="preserve"
   sodipodi:docname="Z with partitions.svg"
   inkscape:version="0.92.2 (5c3e80d, 2017-08-06)"><metadata
     id="metadata28"><rdf:RDF><cc:Work
         rdf:about=""><dc:format>image/svg+xml</dc:format><dc:type
           rdf:resource="http://purl.org/dc/dcmitype/StillImage" /><dc:title></dc:title></cc:Work></rdf:RDF></metadata><defs
     id="defs26" /><sodipodi:namedview
     pagecolor="#ffffff"
     bordercolor="#666666"
     borderopacity="1"
     objecttolerance="10"
     gridtolerance="10"
     guidetolerance="10"
     inkscape:pageopacity="0"
     inkscape:pageshadow="2"
     inkscape:window-width="1920"
     inkscape:window-height="993"
     id="namedview24"
     showgrid="false"
     inkscape:zoom="4.9166667"
     inkscape:cx="8.6440678"
     inkscape:cy="23.186441"
     inkscape:window-x="0"
     inkscape:window-y="28"
     inkscape:window-maximized="1"
     inkscape:current-layer="Layer_1" /><g
     id="g888"
     transform="translate(-0.10169411)"><path
       style="fill:none;stroke:#000000;stroke-width:0.72000003;stroke-linejoin:round;stroke-miterlimit:10"
       d="M 37,35 V 31 H 11 v 4 m 26,0 c -1.105,0 -2,0.895 -2,2 0,1.105 0.895,2 2,2 1.105,0 2,-0.895 2,-2 0,-1.105 -0.895,-2 -2,-2 z M 24,27 v 8"
       id="path2"
       inkscape:connector-curvature="0" /><circle
       style="fill:none;stroke:#000000;stroke-width:0.72000003;stroke-linejoin:round;stroke-miterlimit:10"
       cx="24"
       cy="37"
       r="2"
       id="circle4" /><circle
       style="fill:none;stroke:#000000;stroke-width:0.72000003;stroke-linejoin:round;stroke-miterlimit:10"
       cx="11"
       cy="37"
       r="2"
       id="circle6" /></g><g
     id="Layer_1_1_" /><g
     id="g883"><rect
       x="14.020826"
       y="7.1733689"
       style="fill:none;stroke:#000000;stroke-width:0.612;stroke-linecap:round;stroke-linejoin:round;stroke-miterlimit:10;stroke-dasharray:none"
       width="19.754959"
       height="19.754959"
       id="rect17" /><g
       transform="matrix(0.46519664,0,0,0.46519664,12.733587,5.8861291)"
       id="ibm_z"><path
         inkscape:connector-curvature="0"
         d="m 16.5,39 15,-30 m -15,0 17.143,8.571 M 31.5,39 14.357,30.429 M 28.5,15 12,33 v 6 H 36 V 33 H 19.5 m 0,0 L 36,15 V 9 H 12 v 6 h 16.5"
         style="fill:none;stroke:#000000;stroke-width:0.72000003;stroke-linejoin:round;stroke-miterlimit:10"
         id="ibm_z_1_" /></g></g></svg>